<?xml version="1.0" encoding="UTF-8" standalone="no"?>
<!DOCTYPE svg PUBLIC "-//W3C//DTD SVG 1.1//EN"
 "http://www.w3.org/Graphics/SVG/1.1/DTD/svg11.dtd">
<!-- Generated by graphviz version 2.44.1 (20210330.1920)
 -->
<!-- Title: opp Pages: 1 -->
<svg width="458pt" height="82pt"
 viewBox="0.00 0.00 458.00 82.00" xmlns="http://www.w3.org/2000/svg" xmlns:xlink="http://www.w3.org/1999/xlink">
<g id="graph0" class="graph" transform="scale(1 1) rotate(0) translate(4 78)">
<title>opp</title>
<polygon fill="transparent" stroke="transparent" points="-4,4 -4,-78 454,-78 454,4 -4,4"/>
<!-- WirelessA -->
<g id="node1" class="node">
<title>WirelessA</title>
<g id="a_node1"><a xlink:href="piwinetwork.simulations.WirelessA.html" xlink:title="Network WirelessA" target="_parent">
<polygon fill="#9090ff" stroke="black" points="257.5,-74 195.5,-74 195.5,-55 257.5,-55 257.5,-74"/>
<text text-anchor="middle" x="226.5" y="-62" font-family="Helvetica,sans-Serif" font-size="10.00">WirelessA</text>
</a>
</g>
</g>
<!-- IIntegratedVisualizer -->
<g id="node2" class="node">
<title>IIntegratedVisualizer</title>
<g id="a_node2"><a xlink:href="../../../inet4.5/doc/neddoc/inet.visualizer.contract.IIntegratedVisualizer.html" xlink:title="Module Interface IIntegratedVisualizer" target="_parent">
<polygon fill="#fffcaf" stroke="black" stroke-dasharray="5,2" points="107,-19 0,-19 0,0 107,0 107,-19"/>
<text text-anchor="middle" x="53.5" y="-7" font-family="Helvetica,sans-Serif" font-size="10.00">IIntegratedVisualizer</text>
</a>
</g>
</g>
<!-- WirelessA&#45;&gt;IIntegratedVisualizer -->
<g id="edge1" class="edge">
<title>WirelessA&#45;&gt;IIntegratedVisualizer</title>
<path fill="none" stroke="black" d="M198.7,-54.98C169.53,-46.05 123.5,-31.94 91.1,-22.02"/>
<polygon fill="black" stroke="black" points="92.1,-18.66 81.51,-19.08 90.05,-25.36 92.1,-18.66"/>
</g>
<!-- INetworkNode -->
<g id="node3" class="node">
<title>INetworkNode</title>
<g id="a_node3"><a xlink:href="../../../inet4.5/doc/neddoc/inet.node.contract.INetworkNode.html" xlink:title="Module Interface INetworkNode" target="_parent">
<polygon fill="#fffcaf" stroke="black" stroke-dasharray="5,2" points="205.5,-19 125.5,-19 125.5,0 205.5,0 205.5,-19"/>
<text text-anchor="middle" x="165.5" y="-7" font-family="Helvetica,sans-Serif" font-size="10.00">INetworkNode</text>
</a>
</g>
</g>
<!-- WirelessA&#45;&gt;INetworkNode -->
<g id="edge2" class="edge">
<title>WirelessA&#45;&gt;INetworkNode</title>
<path fill="none" stroke="black" d="M216.7,-54.98C207.68,-47.15 194.09,-35.34 183.18,-25.86"/>
<polygon fill="black" stroke="black" points="185.32,-23.09 175.48,-19.17 180.73,-28.37 185.32,-23.09"/>
</g>
<!-- Ipv4NetworkConfigurator -->
<g id="node4" class="node">
<title>Ipv4NetworkConfigurator</title>
<g id="a_node4"><a xlink:href="../../../inet4.5/doc/neddoc/inet.networklayer.configurator.ipv4.Ipv4NetworkConfigurator.html" xlink:title="Simple Module Ipv4NetworkConfigurator" target="_parent">
<polygon fill="#fffcaf" stroke="black" points="351,-19 224,-19 224,0 351,0 351,-19"/>
<text text-anchor="middle" x="287.5" y="-7" font-family="Helvetica,sans-Serif" font-size="10.00">Ipv4NetworkConfigurator</text>
</a>
</g>
</g>
<!-- WirelessA&#45;&gt;Ipv4NetworkConfigurator -->
<g id="edge3" class="edge">
<title>WirelessA&#45;&gt;Ipv4NetworkConfigurator</title>
<path fill="none" stroke="black" d="M236.3,-54.98C245.32,-47.15 258.91,-35.34 269.82,-25.86"/>
<polygon fill="black" stroke="black" points="272.27,-28.37 277.52,-19.17 267.68,-23.09 272.27,-28.37"/>
</g>
<!-- IRadioMedium -->
<g id="node5" class="node">
<title>IRadioMedium</title>
<g id="a_node5"><a xlink:href="../../../inet4.5/doc/neddoc/inet.physicallayer.wireless.common.contract.packetlevel.IRadioMedium.html" xlink:title="Module Interface IRadioMedium" target="_parent">
<polygon fill="#fffcaf" stroke="black" stroke-dasharray="5,2" points="450,-19 369,-19 369,0 450,0 450,-19"/>
<text text-anchor="middle" x="409.5" y="-7" font-family="Helvetica,sans-Serif" font-size="10.00">IRadioMedium</text>
</a>
</g>
</g>
<!-- WirelessA&#45;&gt;IRadioMedium -->
<g id="edge4" class="edge">
<title>WirelessA&#45;&gt;IRadioMedium</title>
<path fill="none" stroke="black" d="M255.9,-54.98C286.89,-46.01 335.88,-31.82 370.17,-21.89"/>
<polygon fill="black" stroke="black" points="371.24,-25.23 379.87,-19.08 369.29,-18.5 371.24,-25.23"/>
</g>
</g>
</svg>
